<svg xmlns="http://www.w3.org/2000/svg" version="1.1" xmlns:xlink="http://www.w3.org/1999/xlink" xmlns:svgjs="http://svgjs.com/svgjs" width="3000" height="3000"><svg xmlns="http://www.w3.org/2000/svg" xmlns:xlink="http://www.w3.org/1999/xlink" width="3000" zoomAndPan="magnify" viewBox="0 0 2250 2250.000011" height="3000" preserveAspectRatio="xMidYMid meet" version="1.0"><defs><g></g></defs><g fill="#5171ff" fill-opacity="1"><g transform="translate(119.445053, 1593.160296)"><g><path d="M 805.5 -21.480469 L 922.296875 -21.480469 C 947.804688 -21.480469 969.28125 -42.960938 969.28125 -68.46875 L 969.28125 -959.886719 C 969.28125 -985.394531 947.804688 -1006.871094 922.296875 -1006.871094 L 821.609375 -1006.871094 C 794.757812 -1006.871094 774.621094 -985.394531 774.621094 -959.886719 L 774.621094 -353.078125 L 308.773438 -988.078125 C 300.71875 -1000.160156 285.953125 -1006.871094 271.183594 -1006.871094 L 154.386719 -1006.871094 C 130.222656 -1006.871094 107.398438 -986.734375 107.398438 -959.886719 C 107.398438 -949.144531 110.085938 -939.75 116.796875 -931.691406 L 766.566406 -40.273438 C 775.964844 -28.191406 790.730469 -21.480469 805.5 -21.480469 Z M 154.386719 -21.480469 L 255.074219 -21.480469 C 280.582031 -21.480469 302.0625 -42.960938 302.0625 -68.46875 L 302.0625 -314.144531 C 302.0625 -340.996094 280.582031 -361.132812 255.074219 -361.132812 L 154.386719 -361.132812 C 128.878906 -361.132812 107.398438 -340.996094 107.398438 -314.144531 L 107.398438 -68.46875 C 107.398438 -42.960938 128.878906 -21.480469 154.386719 -21.480469 Z M 154.386719 -21.480469 "></path></g></g></g><g fill="#5171ff" fill-opacity="1"><g transform="translate(1196.125989, 1593.160296)"><g><path d="M 153.042969 -21.480469 L 255.074219 -21.480469 C 280.582031 -21.480469 300.71875 -42.960938 300.71875 -68.46875 L 300.71875 -339.652344 L 555.792969 -339.652344 C 767.910156 -339.652344 907.527344 -471.214844 907.527344 -672.589844 C 907.527344 -872.625 767.910156 -1006.871094 555.792969 -1006.871094 L 153.042969 -1006.871094 C 128.878906 -1006.871094 107.398438 -985.394531 107.398438 -959.886719 L 107.398438 -864.566406 C 107.398438 -839.0625 128.878906 -817.582031 153.042969 -817.582031 L 547.738281 -817.582031 C 663.195312 -817.582031 714.207031 -765.222656 714.207031 -672.589844 C 714.207031 -577.273438 661.851562 -527.601562 547.738281 -527.601562 L 153.042969 -527.601562 C 128.878906 -527.601562 107.398438 -506.121094 107.398438 -480.613281 L 107.398438 -68.46875 C 107.398438 -42.960938 128.878906 -21.480469 153.042969 -21.480469 Z M 153.042969 -21.480469 "></path></g></g></g></svg><style>@media (prefers-color-scheme: light) { :root { filter: none; } }
@media (prefers-color-scheme: dark) { :root { filter: contrast(0.3846153846153846) brightness(4.5); } }
</style></svg>